<?xml version="1.0" standalone="no"?>
<!DOCTYPE svg PUBLIC "-//W3C//DTD SVG 20010904//EN"
 "http://www.w3.org/TR/2001/REC-SVG-20010904/DTD/svg10.dtd">
<svg version="1.0" xmlns="http://www.w3.org/2000/svg"
 width="300.000000pt" height="300.000000pt" viewBox="0 0 300.000000 300.000000"
 preserveAspectRatio="xMidYMid meet">
<metadata>
Created by potrace 1.10, written by Peter Selinger 2001-2011
</metadata>
<g transform="translate(0.000000,300.000000) scale(0.100000,-0.100000)"
fill="#000000" stroke="none">
<path d="M355 2980 c5 -15 0 -21 -19 -26 -15 -3 -43 -15 -63 -25 -21 -10 -45
-19 -55 -19 -26 0 -22 -12 18 -51 l36 -34 -16 38 c-12 29 -12 37 -2 37 8 0 34
9 60 20 37 17 50 19 67 9 12 -6 70 -12 130 -13 59 0 110 -4 114 -8 4 -3 2 -16
-5 -27 -14 -28 10 -29 34 -2 17 18 17 20 -3 40 -12 12 -33 21 -48 21 -85 1
-197 11 -214 20 -10 6 -19 17 -19 25 0 8 -5 15 -11 15 -6 0 -8 -8 -4 -20z"/>
<path d="M660 2994 c0 -4 8 -28 17 -55 13 -37 23 -49 38 -49 30 0 49 -16 42
-34 -9 -22 29 -59 52 -51 27 8 145 10 159 1 8 -5 17 3 26 24 l13 32 11 -58
c15 -74 15 -82 -2 -86 -12 -2 -12 -7 -3 -24 12 -21 14 -21 62 -7 28 8 71 19
98 26 26 6 47 15 47 20 0 4 -10 5 -22 1 -51 -17 -92 3 -71 34 7 11 21 16 42
14 17 -1 31 2 31 7 0 5 11 8 25 5 16 -3 25 0 25 8 0 9 3 9 9 -1 9 -15 62 -16
148 -5 28 3 46 -2 75 -21 21 -14 36 -30 33 -35 -4 -6 3 -10 14 -10 14 0 19 5
15 15 -4 8 -1 15 5 15 7 0 24 11 39 25 16 15 30 21 36 15 6 -6 16 -5 27 0 13
7 22 6 33 -6 13 -13 16 -13 16 -1 0 10 8 13 25 9 14 -2 25 -8 25 -14 0 -5 7
-5 18 1 9 5 22 10 27 11 6 1 21 7 34 12 30 11 55 3 45 -14 -4 -7 -4 -10 1 -6
10 9 31 -13 38 -38 3 -14 5 -13 6 7 2 45 23 53 137 52 128 -1 146 -9 62 -27
-16 -4 -32 -18 -40 -34 l-14 -28 60 33 c34 18 68 33 77 33 22 0 46 29 55 65 9
41 12 45 29 39 21 -8 26 -35 15 -74 -9 -30 -7 -37 17 -62 15 -16 35 -45 44
-66 17 -34 17 -38 2 -49 -13 -10 -14 -13 -2 -13 36 1 42 16 20 58 -11 22 -18
47 -15 55 4 11 -4 17 -26 22 -29 6 -31 10 -25 34 18 71 17 89 -4 110 -19 19
-29 20 -91 16 -59 -5 -70 -4 -70 10 0 20 -29 19 -51 -1 -10 -9 -28 -16 -41
-16 -47 1 -79 1 -95 0 -24 -2 -102 10 -114 17 -5 4 -9 13 -9 20 0 8 -10 19
-21 26 -20 10 -21 9 -15 -14 8 -35 -31 -44 -83 -19 -42 21 -93 19 -112 -4 -13
-16 -39 -19 -39 -5 0 5 -8 8 -17 7 -10 0 -17 5 -16 12 3 13 -9 16 -21 5 -9 -9
-34 -15 -68 -17 -16 0 -28 -7 -28 -13 0 -7 -4 -13 -10 -13 -17 0 -11 25 10 43
21 17 27 37 11 37 -5 0 -11 -9 -14 -20 -3 -11 -10 -20 -16 -20 -6 0 -11 9 -11
20 0 24 -6 25 -26 6 -10 -10 -10 -16 -2 -18 7 -3 8 -10 4 -17 -7 -11 -10 -11
-17 0 -6 10 -12 8 -27 -9 -12 -14 -31 -22 -50 -22 -28 0 -31 3 -34 38 -3 34
-6 37 -35 39 -39 2 -44 -14 -8 -23 39 -10 31 -34 -10 -34 -29 0 -39 6 -53 30
-17 30 -49 43 -38 15 7 -20 -4 -19 -20 3 -12 15 -13 14 -9 -13 10 -65 35 -246
35 -255 0 -6 -9 -10 -20 -10 -23 0 -25 19 -21 152 3 62 0 79 -12 84 -8 3 -18
16 -21 30 -4 13 -13 24 -21 24 -12 0 -14 -12 -10 -62 4 -45 3 -57 -4 -41 -5
12 -19 24 -30 28 -13 4 -23 18 -27 41 -3 19 -12 34 -20 34 -13 0 -13 -19 1
-67 4 -12 -50 -20 -96 -15 -22 3 -28 9 -33 43 -4 26 -11 39 -22 39 -10 0 -14
-6 -10 -17 19 -66 19 -73 -5 -73 -35 0 -46 11 -54 53 -4 21 -13 37 -21 37 -8
0 -14 -3 -14 -6z m1030 -74 c0 -14 5 -18 16 -13 11 4 22 -1 30 -12 18 -24 19
-78 2 -73 -7 3 -12 18 -13 34 0 42 -29 39 -33 -3 -6 -57 -22 -36 -22 27 0 33
4 60 10 60 6 0 10 -9 10 -20z m450 -39 l0 -59 -32 2 c-18 2 -36 4 -40 5 -5 0
-8 16 -8 35 0 26 5 36 20 41 11 3 24 3 30 0 5 -3 10 3 10 14 0 12 5 21 10 21
6 0 10 -26 10 -59z m-1006 32 c4 -9 1 -20 -6 -24 -9 -6 -9 -13 0 -34 15 -33
15 -35 -3 -35 -16 0 -31 42 -21 59 3 5 0 11 -6 14 -10 3 -10 7 1 20 17 21 27
21 35 0z m214 0 c12 -12 13 -18 4 -21 -14 -4 -16 -52 -2 -52 6 0 10 -5 10 -11
0 -6 -8 -9 -17 -7 -25 5 -40 108 -16 108 2 0 12 -8 21 -17z m303 10 c7 -54 3
-103 -8 -103 -8 0 -13 13 -13 34 0 19 -5 36 -12 38 -9 3 -8 9 2 21 16 17 29
22 31 10z m-810 -59 l5 -42 -35 2 c-45 1 -56 31 -17 46 34 13 33 22 -1 14 -26
-7 -27 -6 -14 10 8 9 24 16 35 14 16 -2 22 -12 27 -44z m127 33 c16 -11 16
-80 0 -75 -7 3 -12 17 -13 33 0 15 -6 30 -12 32 -9 3 -13 -7 -13 -31 0 -44
-18 -48 -22 -4 -4 46 -28 49 -28 4 0 -20 -4 -36 -10 -36 -5 0 -10 19 -10 43
l0 44 48 -1 c26 -1 53 -5 60 -9z m72 -32 c0 -25 -4 -45 -10 -45 -5 0 -10 20
-10 45 0 25 5 45 10 45 6 0 10 -20 10 -45z m180 26 c15 -28 13 -31 -20 -31
-16 0 -30 -5 -30 -11 0 -7 10 -9 25 -6 16 3 24 0 22 -7 -11 -33 -67 -10 -67
28 0 44 50 63 70 27z m72 4 c-2 -5 -10 -9 -19 -7 -8 2 -12 -1 -8 -7 3 -6 13
-11 21 -11 10 0 14 -8 12 -22 -2 -17 -10 -23 -27 -23 -13 0 -26 6 -29 14 -3 9
1 11 17 6 12 -4 21 -2 21 4 0 6 -6 11 -14 11 -19 0 -29 17 -22 36 6 17 53 16
48 -1z m98 -30 c0 -25 -4 -45 -10 -45 -5 0 -10 20 -10 45 0 25 5 45 10 45 6 0
10 -20 10 -45z m77 33 c15 -12 18 -78 4 -78 -6 0 -11 15 -13 33 -4 42 -33 45
-33 3 -1 -16 -6 -31 -13 -34 -8 -2 -12 9 -12 36 0 21 2 41 5 43 9 10 50 8 62
-3z m103 -38 c0 -29 -6 -52 -14 -60 -18 -14 -58 -10 -64 7 -2 9 5 11 27 7 19
-4 31 -2 31 4 0 6 -12 12 -27 14 -20 2 -29 9 -31 26 -5 32 14 51 49 50 28 -1
29 -3 29 -48z m258 38 c21 -21 13 -38 -18 -38 -16 0 -30 -5 -30 -11 0 -7 10
-9 26 -5 19 5 25 3 22 -6 -6 -18 -36 -22 -53 -8 -30 25 -12 80 25 80 9 0 21
-5 28 -12z m123 -4 c11 -13 9 -15 -17 -12 -23 2 -29 -1 -29 -17 0 -16 6 -19
29 -17 26 3 28 1 17 -12 -26 -31 -71 -12 -71 29 0 41 45 60 71 29z m78 7 c30
-19 11 -80 -26 -81 -16 0 -43 28 -43 45 0 17 27 45 43 45 7 0 18 -4 26 -9z
m189 -3 c21 -21 13 -38 -18 -38 -16 0 -30 -5 -30 -11 0 -8 11 -9 31 -5 27 5
30 4 19 -9 -25 -30 -70 -11 -70 30 0 25 18 45 40 45 9 0 21 -5 28 -12z"/>
<path d="M2080 2865 c0 -20 4 -26 18 -23 9 2 17 12 17 23 0 11 -8 21 -17 23
-14 3 -18 -3 -18 -23z"/>
<path d="M1512 2868 c2 -12 10 -23 18 -23 22 0 19 39 -3 43 -15 3 -18 -1 -15
-20z"/>
<path d="M1984 2875 c-7 -18 3 -35 21 -35 15 0 24 19 18 38 -6 17 -32 15 -39
-3z"/>
<path d="M0 2964 c0 -9 10 -24 23 -35 12 -10 16 -18 10 -19 -18 0 -16 -20 2
-20 21 0 115 -52 115 -63 0 -15 41 -47 59 -46 11 0 10 3 -5 9 -11 4 -28 19
-36 32 -9 14 -39 40 -67 57 -28 18 -51 39 -51 45 0 7 -11 22 -25 34 -20 18
-25 19 -25 6z"/>
<path d="M252 2809 l-24 -9 24 -29 c13 -15 26 -26 31 -24 4 2 7 0 7 -5 0 -6 6
-12 14 -15 10 -4 12 0 9 14 -3 10 -9 19 -14 19 -5 0 -9 8 -9 18 0 30 -13 40
-38 31z"/>
<path d="M340 2794 c0 -12 58 -70 64 -63 2 2 -12 20 -30 39 -19 19 -34 30 -34
24z"/>
<path d="M577 2765 c4 -11 11 -24 15 -30 40 -49 78 -106 78 -118 0 -7 13 -26
29 -41 16 -15 32 -42 35 -59 5 -27 57 -97 72 -97 11 0 -18 40 -36 50 -15 8
-20 21 -20 50 0 32 -6 43 -30 62 -18 13 -30 31 -30 44 0 13 -6 27 -13 31 -8 4
-24 24 -38 43 -13 19 -34 46 -47 60 -19 20 -22 21 -15 5z"/>
<path d="M2573 2763 c-3 -10 -8 -22 -10 -28 -3 -5 2 -2 10 7 13 16 15 16 36
-5 l22 -22 -18 32 c-20 37 -31 41 -40 16z"/>
<path d="M1374 2720 c19 -29 21 -61 4 -78 -10 -10 -10 -15 2 -22 8 -5 15 -16
15 -24 0 -18 42 -76 55 -76 15 0 12 27 -4 33 -8 3 -20 16 -27 29 -12 23 -12
23 10 4 33 -30 34 -13 1 23 -22 22 -29 38 -25 54 4 15 -3 32 -21 52 -18 22
-21 23 -10 5z"/>
<path d="M1235 2711 c-9 -16 -27 -171 -22 -197 l4 -25 -21 20 c-12 12 -29 21
-37 21 -10 -1 -9 -5 5 -15 10 -8 23 -16 28 -17 10 -4 0 -38 -12 -38 -4 0 -33
23 -65 51 -61 53 -90 60 -109 24 -41 -76 -83 -134 -96 -132 -17 2 -27 -16 -12
-21 18 -6 77 56 97 102 11 25 26 48 32 50 16 6 109 -72 116 -97 3 -10 1 -32
-4 -50 -5 -17 -9 -48 -8 -67 l1 -35 8 34 c4 18 14 37 21 42 7 4 10 11 7 15 -8
7 32 86 64 126 16 20 18 30 10 40 -11 13 -10 43 3 131 7 44 3 59 -10 38z"/>
<path d="M808 2639 c28 -30 52 -60 52 -67 0 -7 5 -10 10 -7 6 3 10 25 9 48 0
23 -3 35 -6 27 -2 -8 -7 -21 -9 -29 -3 -10 -14 -4 -37 20 -17 19 -41 41 -52
49 -11 8 4 -11 33 -41z"/>
<path d="M1420 2683 c1 -16 26 -40 58 -57 35 -18 42 -36 15 -37 -15 0 -15 -2
2 -9 19 -8 19 -9 -2 -9 -33 -1 -29 -31 6 -44 16 -6 32 -19 35 -30 3 -13 0 -17
-10 -13 -9 3 -12 1 -9 -4 9 -14 53 -12 58 3 7 21 -5 48 -19 43 -8 -3 -14 1
-14 9 0 9 11 15 28 16 20 1 22 2 7 6 -28 7 -55 33 -55 54 0 9 -16 26 -35 38
-19 11 -35 25 -35 31 0 5 -7 10 -15 10 -8 0 -15 -3 -15 -7z"/>
<path d="M1872 2678 c-16 -16 -62 -18 -62 -4 0 6 -9 -4 -21 -23 -28 -46 -42
-59 -73 -67 -14 -3 -26 -12 -26 -20 0 -8 -4 -14 -10 -14 -5 0 -7 -7 -4 -15 4
-8 10 -15 15 -15 4 0 6 7 3 15 -4 8 -1 15 6 15 7 0 10 -8 7 -20 -3 -11 -1 -23
4 -26 5 -3 9 3 9 13 0 15 2 16 10 3 8 -12 10 -11 10 8 0 15 10 29 30 40 16 9
30 22 30 28 0 15 48 59 56 51 23 -23 -50 -154 -80 -144 -6 2 -20 -12 -31 -32
-11 -19 -39 -50 -63 -67 l-42 -33 22 -15 c12 -9 32 -16 43 -15 19 0 19 1 -2
11 -25 12 -31 38 -10 38 18 0 53 39 68 75 l12 30 6 -25 c7 -24 7 -24 30 13 28
45 59 55 112 34 30 -12 41 -13 44 -4 22 58 32 108 22 104 -6 -2 -14 -17 -18
-34 -8 -42 -17 -53 -42 -53 -31 1 -61 25 -51 42 10 16 10 50 1 66 -5 6 -3 21
3 32 12 23 10 26 -8 8z"/>
<path d="M2950 2655 c-12 -20 -27 -41 -34 -48 -7 -6 -25 -34 -41 -62 -16 -27
-34 -55 -40 -62 -30 -35 -35 -43 -35 -48 0 -7 -69 -113 -90 -138 -8 -10 -14
-21 -13 -25 1 -4 -4 -13 -10 -21 -6 -7 -16 -21 -22 -31 -21 -36 -91 -136 -107
-154 -10 -11 -18 -24 -18 -30 0 -6 -26 -48 -57 -94 -32 -46 -63 -91 -68 -100
-6 -10 -23 -36 -38 -60 -16 -24 -27 -48 -25 -54 4 -12 95 117 258 367 68 105
180 275 248 379 68 104 126 195 129 202 11 28 -16 13 -37 -21z"/>
<path d="M717 2642 c23 -22 29 -24 35 -12 11 26 9 32 -11 25 -11 -3 -22 -1
-26 5 -3 5 -11 10 -16 10 -5 0 3 -12 18 -28z"/>
<path d="M2697 2625 c9 -16 28 -44 40 -61 13 -17 23 -36 23 -42 0 -7 5 -12 10
-12 19 0 10 22 -22 60 -18 21 -41 49 -51 62 -17 22 -17 22 0 -7z"/>
<path d="M1567 2620 c-16 -23 -16 -25 0 -31 19 -7 27 8 21 39 -3 14 -6 13 -21
-8z"/>
<path d="M2045 2629 c33 -5 90 -16 127 -25 93 -22 108 -12 21 14 -47 15 -95
22 -140 21 l-68 -2 60 -8z"/>
<path d="M76 2621 c5 -4 26 -18 47 -31 37 -22 38 -22 26 -3 -7 12 -28 25 -47
31 -19 6 -31 7 -26 3z"/>
<path d="M1360 2583 c0 -6 -14 -20 -32 -31 -23 -15 -37 -18 -55 -11 -21 8 -22
6 -14 -9 9 -16 35 -41 59 -55 6 -4 20 -2 30 4 16 10 29 5 85 -35 37 -26 69
-52 73 -57 8 -13 -117 -189 -134 -189 -19 0 -103 53 -128 81 -15 17 -16 24 -6
39 16 26 15 29 -8 23 -10 -3 -19 -8 -18 -12 1 -3 -2 -14 -6 -23 -5 -11 -2 -23
8 -34 31 -31 37 -51 19 -69 -9 -9 -24 -14 -34 -12 -11 3 -22 0 -26 -5 -3 -7
-1 -8 5 -4 6 3 15 -1 20 -11 8 -13 1 -29 -29 -70 -22 -29 -35 -53 -29 -53 5 0
10 -5 10 -12 0 -6 8 -20 17 -30 13 -15 14 -21 4 -31 -9 -9 -14 -9 -20 1 -4 7
-18 14 -31 17 -20 4 -35 14 -87 62 -8 7 -27 20 -43 30 -29 17 -41 43 -20 43 6
0 10 15 10 33 0 26 -6 37 -25 47 -14 8 -33 29 -42 47 -21 45 -27 36 -11 -16
10 -31 18 -41 34 -41 15 0 24 -8 28 -25 9 -34 2 -43 -30 -39 -14 1 -35 -1 -47
-5 -18 -7 -17 -9 16 -30 20 -12 41 -20 47 -16 5 3 10 0 10 -7 0 -7 204 -140
454 -295 420 -262 456 -283 498 -283 45 0 46 1 67 49 26 61 27 112 3 141 -22
28 -38 21 -47 -20 -5 -21 -13 -30 -27 -30 -17 0 -19 4 -13 33 11 48 32 84 61
104 15 10 36 28 49 41 12 12 25 22 28 22 3 0 21 -16 41 -36 32 -32 38 -35 53
-23 11 9 14 10 10 2 -5 -8 14 -22 59 -43 37 -17 69 -29 71 -27 2 2 -1 15 -6
28 -5 13 -10 19 -10 12 -1 -13 -57 -1 -74 16 -19 19 11 41 39 30 30 -11 34
-11 34 -1 0 4 -13 13 -29 20 -26 11 -33 11 -55 -3 -24 -16 -27 -16 -42 -1 -13
13 -19 14 -30 5 -8 -7 -18 -8 -22 -4 -4 4 -1 10 6 12 10 4 10 8 0 20 -12 15
-10 19 37 51 23 17 78 82 73 88 -3 3 -27 -17 -53 -45 -52 -56 -60 -59 -87 -34
-17 15 -18 15 -12 -15 6 -28 3 -33 -20 -42 -14 -5 -26 -14 -26 -19 0 -5 -16
-19 -35 -31 -33 -21 -54 -49 -74 -104 -7 -16 -5 -32 6 -52 12 -24 13 -35 3
-62 -7 -19 -10 -36 -7 -38 3 -3 10 10 16 28 6 18 22 47 36 63 21 25 26 28 35
15 10 -14 5 -94 -7 -112 -8 -14 -73 -8 -106 8 -34 18 -107 63 -200 125 -32 22
-62 39 -67 39 -4 0 -13 6 -19 14 -9 11 -8 15 5 20 9 3 20 4 24 1 5 -3 30 0 56
6 38 10 44 14 28 20 -13 5 -6 8 26 9 34 1 40 3 25 10 -11 4 -30 6 -41 3 -22
-5 -97 28 -109 47 -3 5 -16 10 -27 10 -20 0 -20 -1 -5 -18 10 -10 14 -22 10
-26 -4 -4 0 -4 9 -1 9 4 19 1 23 -4 3 -6 11 -9 16 -6 5 4 9 2 9 -4 0 -5 9 -8
20 -6 13 2 20 -2 20 -11 0 -25 -74 -23 -103 4 -19 16 -19 16 -13 -5 10 -31 -7
-29 -61 7 -24 17 -47 30 -50 30 -16 0 -123 76 -123 87 0 7 15 19 33 27 17 7
49 28 71 45 44 35 54 38 62 16 4 -8 10 -15 14 -15 4 0 1 16 -8 35 l-16 34 -41
-38 c-23 -21 -54 -47 -70 -57 -28 -18 -28 -18 -52 10 -13 16 -23 38 -21 50 1
11 -1 27 -6 34 -11 17 1 29 15 15 8 -8 20 -6 43 7 54 32 113 45 141 32 l25
-12 -6 95 c-6 95 -6 95 17 95 38 0 49 -13 54 -66 l5 -49 -14 48 c-15 52 -33
80 -22 35 3 -16 2 -28 -3 -28 -5 0 -11 -11 -13 -25 -4 -20 -1 -25 14 -25 11 0
33 -8 49 -17 23 -14 27 -22 22 -42 -3 -15 -7 -27 -8 -29 -6 -7 -54 22 -49 29
3 5 -4 9 -16 9 -18 0 -19 -3 -10 -20 6 -11 17 -20 24 -20 20 0 46 -34 46 -60
0 -23 -33 -60 -54 -60 -6 0 -3 -5 7 -11 9 -5 17 -17 17 -26 0 -37 112 -112
146 -98 18 7 18 7 -1 15 -19 7 -19 7 0 17 25 14 79 10 99 -6 22 -19 28 4 6 24
-23 21 -25 32 -7 38 6 2 2 2 -10 0 -15 -2 -27 4 -35 17 -7 11 -20 20 -30 20
-21 0 -28 20 -15 44 9 18 10 18 23 -5 13 -24 13 -24 14 11 0 26 3 31 10 20 8
-13 10 -12 10 3 0 9 -4 17 -10 17 -5 0 -10 9 -10 19 0 11 -7 26 -14 34 -13 13
-13 17 -1 33 14 18 14 17 15 -8 0 -20 8 -32 31 -43 17 -9 37 -14 45 -11 9 4
12 2 8 -5 -4 -8 5 -9 32 -5 59 9 68 -1 55 -63 -14 -65 -14 -68 1 -53 41 41 51
182 17 226 -12 16 -28 25 -36 22 -7 -3 -30 1 -51 9 -20 7 -71 21 -112 29 -74
15 -181 62 -184 81 -2 16 57 18 69 3 39 -49 104 -42 169 17 68 62 94 129 70
180 l-14 30 5 -27 c14 -76 -91 -208 -166 -208 -31 0 -59 28 -59 58 l0 21 -36
-21 c-29 -17 -39 -19 -60 -9 -24 11 -24 12 -7 30 10 10 25 21 33 24 8 3 0 6
-18 6 -19 1 -31 5 -27 11 3 6 1 10 -6 10 -8 0 -8 4 1 15 11 13 10 14 -4 9 -9
-3 -28 -3 -42 0 -22 6 -25 11 -20 31 4 15 2 25 -4 25 -6 0 -9 4 -5 9 3 5 -3
12 -14 16 -11 3 -29 20 -40 38 -11 18 -21 27 -21 20z m30 -52 c0 -9 -53 -31
-73 -31 -6 0 -2 9 8 20 18 20 65 28 65 11z m262 -326 c4 -5 7 -19 7 -30 -1
-16 -2 -16 -9 5 -7 22 -8 21 -9 -12 -1 -21 -6 -38 -12 -38 -7 0 -9 15 -5 43
l6 42 -20 -40 -19 -40 -1 37 c0 20 -4 40 -10 43 -5 3 -10 13 -10 20 0 12 6 12
38 -3 20 -9 40 -21 44 -27z m-388 14 c-5 -8 1 -10 19 -5 24 6 27 3 33 -29 7
-40 30 -51 68 -34 26 12 35 29 15 29 -5 0 -7 5 -4 10 4 6 11 8 16 4 6 -3 17 3
25 15 23 32 29 26 28 -27 -1 -70 -2 -72 -31 -72 -16 0 -48 -9 -72 -20 -53 -25
-69 -25 -49 -2 32 37 32 45 -2 26 -86 -51 -103 -117 -45 -176 28 -28 33 -37
21 -41 -9 -4 -31 4 -50 16 -35 22 -47 47 -23 47 7 0 5 5 -5 11 -9 5 -15 16
-12 23 3 8 -2 26 -11 39 -16 24 -15 27 24 79 23 29 41 61 42 71 1 9 3 22 4 27
1 6 3 12 4 15 0 3 4 5 7 5 3 0 2 -5 -2 -11z m426 -66 c0 -33 -2 -36 -15 -23
-8 9 -12 24 -9 38 10 35 24 26 24 -15z m77 24 c1 -2 6 -25 9 -50 5 -32 3 -47
-5 -47 -6 0 -11 12 -12 28 0 26 -17 77 -18 57 -1 -5 -6 -3 -12 5 -9 12 -10 10
-6 -8 6 -27 -1 -52 -14 -52 -5 0 -9 19 -9 41 0 41 0 41 32 35 17 -3 33 -8 35
-9z m80 -24 c2 -6 -3 -18 -12 -26 -8 -9 -15 -25 -15 -36 0 -11 -5 -23 -11 -27
-8 -5 -9 9 -5 47 5 39 4 50 -3 39 -6 -8 -11 -12 -11 -8 0 3 -3 13 -6 21 -4 12
1 13 27 8 18 -4 34 -12 36 -18z m33 -46 c0 -51 -7 -62 -26 -42 -17 17 -18 29
-2 19 8 -5 9 -2 4 11 -8 21 1 55 15 55 5 0 9 -19 9 -43z m46 26 c-3 -10 -8
-31 -11 -48 -6 -29 -6 -29 9 -11 16 19 16 19 16 -2 0 -22 -15 -28 -37 -14 -17
11 -5 92 14 92 9 0 12 -7 9 -17z m-234 -50 c14 -27 15 -33 3 -33 -7 0 -17 5
-20 10 -9 15 -25 12 -25 -4 0 -8 6 -14 13 -13 43 1 48 -2 36 -25 -15 -29 -30
-39 -48 -33 -12 5 -12 3 0 -11 11 -14 11 -18 -6 -30 -23 -17 -12 -18 17 -3 25
14 41 -5 33 -38 -3 -13 -1 -23 5 -23 5 0 10 6 10 14 0 8 7 17 16 20 14 5 15 4
4 -9 -11 -13 -9 -15 13 -15 14 0 29 -4 32 -10 4 -6 -16 -10 -54 -10 -33 0 -63
-4 -66 -10 -3 -5 -11 -10 -18 -10 -8 0 -8 3 1 12 16 16 -3 38 -34 38 -35 0
-38 17 -10 51 23 27 28 38 28 59 1 3 -2 18 -6 34 -6 23 -4 27 8 23 9 -4 16 -2
16 3 0 6 -4 10 -10 10 -5 0 -10 9 -10 21 0 34 49 21 72 -18z"/>
<path d="M2236 2537 c-20 -24 -36 -48 -36 -54 0 -5 -10 -19 -23 -31 l-24 -22
-18 20 c-10 11 -24 19 -31 16 -6 -2 -35 7 -64 20 -29 13 -55 23 -57 20 -9 -8
29 -35 42 -30 8 4 17 -1 21 -9 3 -9 23 -18 44 -22 21 -4 46 -13 57 -20 10 -8
21 -15 24 -15 10 0 113 160 107 166 -3 3 -22 -15 -42 -39z"/>
<path d="M1605 2539 c-4 -5 0 -18 9 -28 9 -10 13 -21 9 -24 -3 -4 -1 -7 5 -7
7 0 10 12 6 33 -5 30 -5 31 10 13 9 -11 17 -29 17 -40 1 -17 2 -18 6 -3 2 9 9
15 14 12 18 -12 8 12 -14 33 -25 24 -52 28 -62 11z"/>
<path d="M2356 2499 c-10 -27 -28 -56 -39 -64 -11 -8 -19 -17 -16 -19 10 -10
40 24 58 67 12 27 27 47 36 47 18 0 19 -4 1 -43 -36 -83 -57 -139 -53 -143 2
-3 14 17 25 43 11 26 32 73 45 103 l24 55 -32 2 c-29 1 -33 -2 -49 -48z"/>
<path d="M33 2467 c12 -25 54 -53 65 -43 3 3 -3 8 -12 12 -9 3 -13 10 -10 15
3 5 0 9 -7 9 -7 0 -20 7 -30 16 -17 16 -18 15 -6 -9z"/>
<path d="M2688 2426 c-29 -45 -43 -76 -35 -76 2 0 21 27 40 60 41 68 36 82 -5
16z"/>
<path d="M1 2433 c0 -15 3 -22 6 -15 7 17 23 15 23 -3 0 -8 5 -15 10 -15 6 0
10 -10 10 -21 0 -17 -5 -20 -24 -17 -19 4 -23 1 -23 -19 0 -16 5 -23 18 -23
12 0 16 5 13 14 -7 18 41 29 81 18 l30 -8 -35 -8 c-19 -4 -30 -10 -25 -12 10
-4 80 6 164 22 20 4 36 2 40 -4 4 -7 19 -8 41 -2 28 6 30 8 10 9 -18 1 -21 4
-12 10 11 7 11 9 -2 14 -9 4 -24 4 -33 1 -15 -5 -15 -3 2 12 20 17 20 17 0 9
-11 -4 -37 -9 -58 -11 -21 -3 -48 -9 -60 -15 -20 -9 -19 -9 5 -4 36 7 47 -12
12 -21 -20 -5 -31 -2 -40 10 -7 10 -14 16 -16 15 -1 -2 -18 3 -36 9 -22 7 -31
16 -26 23 4 8 3 9 -4 5 -7 -4 -12 -3 -12 2 0 4 -13 18 -30 30 l-30 23 1 -28z"/>
<path d="M1292 2411 c-30 -45 -35 -81 -11 -81 5 0 9 -7 9 -15 0 -8 9 -15 20
-15 11 0 20 6 20 13 0 8 9 22 20 32 27 24 24 82 -5 101 -18 12 -23 8 -53 -35z
m38 -26 c11 -13 10 -15 -6 -9 -18 5 -18 5 -1 -9 9 -8 17 -17 17 -21 0 -12 -23
-6 -42 11 -22 20 -24 35 -3 27 8 -4 15 -1 15 5 0 15 5 14 20 -4z"/>
<path d="M205 2428 c-4 -10 -14 -18 -22 -18 -8 0 -12 -4 -9 -8 8 -14 116 9
116 25 0 18 -39 17 -46 -2 -8 -20 -22 -19 -27 3 -4 16 -4 16 -12 0z"/>
<path d="M440 2403 c1 -5 33 -30 72 -56 71 -48 71 -48 105 -32 42 20 42 25 -2
18 -19 -3 -42 -2 -52 2 -10 5 -21 7 -25 7 -5 -1 -8 2 -8 7 0 8 -74 61 -85 61
-3 0 -5 -3 -5 -7z"/>
<path d="M418 2343 c-41 -5 -50 -13 -66 -60 -9 -26 -8 -33 2 -33 13 0 31 27
28 42 -2 10 69 28 82 21 6 -4 5 1 -3 10 -12 15 -12 17 3 11 9 -3 16 -1 16 5 0
6 -6 10 -12 9 -7 -1 -30 -3 -50 -5z"/>
<path d="M858 2266 c-18 -36 -24 -40 -66 -36 -13 1 -38 -4 -55 -11 -37 -15
-113 -79 -94 -79 20 0 57 30 57 46 0 9 6 14 13 11 6 -2 24 2 38 9 19 10 36 11
60 4 43 -13 89 -13 89 -1 0 5 -3 17 -6 26 -6 14 -8 14 -25 -1 -23 -21 -25 -8
-3 17 9 10 14 25 12 35 -2 12 -8 6 -20 -20z"/>
<path d="M642 2241 c-24 -43 -26 -51 -13 -51 5 0 12 8 16 19 3 10 17 31 30 45
21 22 22 26 6 26 -10 0 -27 -17 -39 -39z"/>
<path d="M563 2249 c-26 -10 -28 -19 -10 -41 24 -31 42 -28 42 7 0 41 -4 45
-32 34z"/>
<path d="M237 2240 c-48 -3 -91 -10 -95 -16 -4 -6 -18 -15 -32 -19 l-25 -8 29
-8 c21 -6 33 -3 49 12 13 12 36 19 61 20 59 1 134 14 116 19 -8 3 -55 3 -103
0z"/>
<path d="M410 2204 c-70 -36 -75 -44 -10 -18 22 9 46 14 54 11 9 -4 16 3 20
16 3 12 4 22 3 23 -1 1 -31 -13 -67 -32z"/>
<path d="M6 2220 c5 -4 23 -10 41 -13 24 -5 31 -3 27 6 -2 7 -21 14 -40 14
-20 1 -32 -2 -28 -7z"/>
<path d="M505 2190 c5 -21 3 -30 -6 -30 -7 0 -10 -2 -7 -5 3 -3 16 1 30 8 25
13 25 13 8 35 -25 30 -33 28 -25 -8z"/>
<path d="M2466 2144 c11 -18 15 -40 11 -55 -11 -43 -86 -118 -178 -178 -50
-33 -86 -62 -80 -65 5 -3 11 1 15 9 3 8 11 15 17 15 7 0 21 7 31 17 12 11 18
12 18 3 0 -7 18 4 40 24 42 38 66 47 56 21 -12 -31 3 -13 47 58 76 122 84 143
54 138 -5 -1 -17 9 -28 21 l-19 23 16 -31z"/>
<path d="M2377 2112 c-15 -9 -39 -40 -53 -69 -30 -61 -49 -71 -83 -45 -48 34
-54 35 -30 3 45 -60 111 -46 125 26 5 25 19 49 43 71 39 36 39 39 -2 14z"/>
<path d="M703 2105 c-37 -16 -46 -41 -12 -30 l21 7 -21 -21 c-12 -12 -21 -25
-21 -29 0 -5 -12 -15 -27 -23 -16 -8 -32 -19 -38 -26 -8 -9 -33 -6 -105 13
-52 14 -103 27 -113 29 -25 5 -204 55 -252 69 -42 13 -69 11 -59 -5 3 -5 16
-9 29 -9 23 0 414 -99 464 -117 l23 -9 -28 -19 c-39 -24 -113 -104 -125 -133
-8 -22 -10 -22 -31 -8 -12 9 -29 16 -37 16 -11 0 -8 -5 7 -16 12 -8 20 -20 17
-25 -4 -5 1 -12 9 -15 9 -3 13 -10 10 -15 -3 -5 -2 -14 2 -20 4 -8 9 -7 15 2
7 11 9 11 10 2 4 -35 19 -63 34 -63 8 0 17 -5 21 -12 5 -7 3 -8 -6 -3 -8 5 -7
-1 3 -16 10 -13 23 -24 30 -24 6 -1 11 -7 9 -14 -2 -8 3 -21 11 -30 32 -37 29
-39 -56 -39 -45 0 -99 0 -119 -1 -21 0 -44 0 -50 0 -19 1 -102 -13 -107 -17
-2 -2 30 -4 71 -4 70 0 76 -2 82 -22 9 -37 7 -48 -10 -48 -18 0 -134 -52 -134
-61 0 -3 14 -18 32 -35 17 -16 27 -23 23 -15 -6 11 -4 13 11 8 14 -6 13 -3 -5
11 -13 11 -21 24 -17 30 9 15 113 44 134 38 30 -9 86 -18 118 -18 33 0 35 -4
37 -70 1 -21 4 -33 8 -27 3 6 17 11 30 10 128 -3 129 -3 139 24 12 31 24 32
37 2 9 -20 19 -24 60 -25 29 0 54 5 64 14 22 20 42 10 68 -36 22 -40 41 -58
21 -21 -16 31 -12 41 15 41 28 0 30 -5 39 -67 5 -37 4 -41 -14 -36 -21 5 -25
-4 -14 -31 5 -13 15 -15 48 -10 22 4 50 11 61 17 11 6 42 16 70 23 48 13 49
13 10 10 -22 -1 -47 2 -56 7 -24 15 -2 73 34 88 15 6 29 10 30 8 46 -62 47
-63 47 -38 0 18 8 27 28 35 30 11 75 -3 68 -22 -2 -6 2 -11 10 -11 7 0 11 4 8
8 -9 16 110 5 124 -11 10 -13 11 -13 6 2 -5 14 1 17 34 16 22 0 46 3 54 8 16
11 51 6 60 -9 4 -7 15 -6 36 2 23 10 35 10 52 1 15 -8 25 -9 29 -2 3 5 17 9
31 8 32 -1 39 -46 13 -84 -9 -15 -18 -31 -18 -37 -1 -5 -6 -9 -13 -8 -6 2 -9
-4 -6 -12 4 -8 1 -15 -6 -15 -6 0 -9 -3 -7 -7 3 -5 -1 -14 -9 -21 -12 -11 -14
-10 -14 3 0 20 -39 20 -107 -2 -67 -21 -83 -45 -55 -82 10 -14 28 -27 38 -28
15 -2 15 -1 -4 9 -25 13 -40 54 -24 70 7 7 10 4 9 -8 -2 -13 6 -20 23 -22 24
-3 24 -3 6 11 -10 8 -16 19 -12 25 11 18 46 15 46 -4 0 -8 4 -13 9 -9 5 3 12
1 16 -5 10 -17 -4 -46 -28 -58 -15 -7 -17 -11 -6 -11 19 -1 49 30 49 50 0 8
-5 20 -12 27 -7 7 -8 12 -4 12 5 0 3 7 -4 15 -10 12 -10 15 4 15 22 0 56 -31
56 -52 0 -9 5 -20 10 -23 7 -4 9 3 4 22 -6 27 -6 27 9 8 19 -25 28 -17 31 29
2 19 9 43 17 52 8 10 12 27 11 38 -2 12 0 17 4 13 4 -4 14 3 21 15 9 18 12 19
13 6 0 -9 10 -24 22 -32 28 -20 39 -20 32 -1 -11 27 22 47 71 41 36 -4 45 -1
45 11 0 9 -6 13 -15 9 -10 -3 -15 1 -15 12 -1 16 -1 16 -14 0 -20 -27 -46 -23
-46 7 0 24 9 30 38 26 8 -1 20 3 28 10 10 8 14 8 14 0 0 -6 6 -11 14 -11 7 0
19 -7 26 -15 16 -20 64 -19 84 1 11 10 16 34 16 74 0 58 0 58 -32 63 -18 2
-41 0 -50 -5 -11 -5 -25 -5 -36 1 -9 5 -29 7 -43 4 -21 -4 -27 0 -32 17 -4 17
-10 20 -34 14 -53 -11 -63 -15 -63 -25 0 -15 -46 -10 -60 6 -7 8 -19 15 -26
15 -8 0 -14 7 -14 16 0 11 6 14 20 9 12 -4 20 -2 20 5 0 7 7 10 15 6 8 -3 15
-1 15 4 0 6 -27 10 -59 10 -60 0 -60 0 -293 147 -347 218 -388 243 -404 243
-8 0 -38 -20 -68 -44 -29 -24 -75 -58 -102 -76 -63 -42 -74 -57 -74 -96 0 -25
8 -39 37 -63 20 -16 40 -28 45 -25 4 3 8 -2 8 -10 0 -8 16 -28 35 -44 24 -19
37 -39 38 -57 2 -24 -2 -28 -25 -29 -23 -1 -28 3 -28 20 0 13 7 24 18 27 9 3
0 5 -20 6 -20 0 -43 8 -52 16 -18 19 -24 19 -42 1 -12 -13 -9 -15 23 -18 41
-3 45 -10 57 -112 6 -51 5 -57 -8 -47 -8 7 -16 27 -18 44 -3 30 -6 32 -41 32
-29 0 -37 4 -37 18 0 9 -5 17 -10 17 -6 0 -16 11 -22 25 -9 19 -18 25 -42 24
-18 -1 -23 -3 -13 -6 10 -3 22 -16 28 -29 12 -33 12 -84 -1 -84 -5 0 -10 9
-10 20 0 13 -7 20 -19 20 -21 0 -31 19 -31 56 0 18 -5 24 -21 24 -16 0 -19 -4
-14 -17 4 -10 10 -29 12 -43 l5 -25 -109 2 c-147 4 -174 11 -190 51 l-13 32
142 0 142 0 -30 33 c-17 17 -52 59 -78 91 -55 69 -57 64 48 118 33 16 83 46
113 66 39 26 57 32 65 24 14 -14 51 4 126 59 37 29 52 46 52 64 0 47 -71 44
-137 -4 -64 -47 -84 -71 -78 -90 6 -20 -32 -49 -125 -96 -30 -15 -71 -39 -90
-53 -38 -29 -57 -35 -65 -22 -3 5 3 7 14 5 14 -3 18 1 14 11 -5 15 29 61 109
146 28 31 39 49 31 52 -7 3 -38 -24 -70 -59 -32 -36 -65 -65 -74 -65 -9 0 -22
-7 -30 -16 -11 -13 -9 -14 14 -9 22 6 26 4 22 -8 -4 -9 -18 -14 -35 -13 -15 0
-26 4 -23 9 2 4 -1 15 -8 23 -10 12 -10 15 0 12 17 -4 189 153 187 171 0 8 13
19 29 25 29 10 97 71 89 79 -2 2 7 14 21 27 14 13 25 27 25 32 0 12 -31 9 -67
-7z m187 -171 c0 -14 -49 -71 -54 -62 0 2 -7 14 -14 27 -8 12 -9 20 -3 16 6
-3 11 -1 11 5 0 7 7 10 15 6 8 -3 14 -2 14 2 -3 16 2 22 16 22 8 0 15 -7 15
-16z m213 -76 c18 -12 34 -23 36 -25 2 -1 -2 -9 -9 -18 -10 -12 -16 -13 -27
-3 -12 10 -18 9 -29 -6 -11 -16 -16 -17 -29 -6 -12 10 -13 16 -4 27 7 7 9 16
6 20 -7 6 10 33 20 33 3 0 19 -10 36 -22z m77 -53 c7 -8 16 -15 21 -15 12 0
109 -62 109 -70 0 -4 -6 -12 -13 -18 -10 -9 -23 -5 -51 14 -35 24 -39 24 -55
10 -10 -9 -21 -13 -25 -9 -4 5 -14 -1 -22 -11 -14 -19 -14 -19 -41 5 -16 13
-30 25 -33 27 -7 5 73 80 86 81 6 1 17 -6 24 -14z m-171 -20 c35 -18 46 -41
23 -50 -9 -3 -18 -1 -20 4 -2 6 -8 9 -13 5 -5 -3 -12 2 -15 10 -3 9 -10 13
-15 10 -5 -3 -9 4 -9 15 0 25 11 26 49 6z m-9 -64 c0 -3 -4 -12 -9 -20 -7 -11
-11 -10 -20 5 -6 11 -11 16 -11 12 0 -5 -9 1 -21 13 -11 11 -18 27 -15 35 5
12 12 10 41 -12 19 -14 35 -29 35 -33z m-74 -13 c42 -30 43 -32 27 -50 -21
-24 -22 -23 -66 18 -31 29 -36 38 -26 50 15 19 14 19 65 -18z m119 -9 c4 -6
13 -8 20 -5 15 5 14 -39 -1 -54 -15 -15 -69 33 -61 53 7 19 32 23 42 6z m176
-19 c5 0 9 8 9 18 0 13 2 14 9 3 5 -7 6 -22 4 -32 -4 -13 0 -19 12 -19 13 0
15 3 6 13 -11 14 -5 27 12 27 5 0 7 -17 4 -39 -4 -32 -2 -38 8 -28 7 7 11 15
8 20 -6 10 20 67 31 67 20 0 176 -106 173 -118 -1 -7 -6 -12 -12 -12 -11 2
-24 -27 -24 -55 1 -15 3 -13 11 8 10 29 28 28 28 -3 0 -13 7 -17 25 -16 l24 1
-27 22 c-26 21 -26 22 -9 40 18 17 19 17 35 -2 10 -11 24 -21 32 -23 8 -2 20
-9 25 -16 6 -7 24 -17 40 -22 25 -7 14 -10 -60 -14 -81 -4 -87 -6 -60 -16 l30
-11 -40 -8 c-22 -4 -48 -9 -57 -12 -12 -3 -18 1 -18 11 0 8 8 20 18 25 15 9
15 10 -5 11 -25 0 -29 10 -11 28 9 9 9 12 -1 12 -9 0 -11 9 -6 33 4 17 5 29 1
26 -3 -3 -9 -23 -14 -45 -6 -25 -14 -38 -23 -36 -10 2 -9 -1 3 -11 24 -19 27
-61 5 -65 -15 -3 -18 0 -13 16 5 16 -14 52 -27 52 -1 0 -1 -20 1 -45 3 -28 0
-45 -7 -45 -6 0 -11 5 -11 10 0 6 -5 10 -11 10 -5 0 -8 -4 -5 -9 9 -14 -19
-21 -58 -14 -34 5 -36 8 -36 44 l0 39 -75 0 c-41 0 -75 4 -75 9 0 39 36 55 60
26 21 -25 31 -17 24 20 -5 29 -3 35 11 35 13 0 15 3 6 13 -6 8 -8 17 -4 20 3
4 3 7 -1 7 -4 0 -12 -13 -17 -30 -11 -31 -23 -38 -34 -20 -4 6 -10 8 -15 5 -5
-3 -12 4 -15 16 -6 17 -9 19 -16 8 -16 -26 -10 27 7 57 l16 29 -6 -27 c-5 -21
-3 -28 8 -28 9 0 13 6 10 14 -3 8 0 17 6 21 18 11 23 -2 12 -34 -9 -24 -8 -29
4 -24 7 3 12 8 9 12 -2 4 0 21 5 37 4 16 9 22 9 12 1 -9 12 -25 26 -35 26 -18
26 -19 10 -57 -9 -21 -14 -41 -11 -44 3 -3 6 0 6 6 0 7 7 12 15 12 9 0 12 6 9
15 -4 8 -3 22 0 31 5 13 9 14 21 4 8 -7 13 -16 10 -20 -3 -4 3 -7 13 -6 12 1
16 -5 15 -22 -3 -20 -1 -21 17 -10 11 7 16 14 10 16 -5 2 -3 13 5 26 8 12 12
26 9 29 -4 4 -2 12 4 20 6 7 7 18 3 26 -6 9 -11 1 -15 -25 -11 -64 -19 -69
-54 -36 -17 16 -34 27 -37 24 -3 -4 -8 4 -12 17 -4 16 -8 19 -14 10 -6 -11 -9
-10 -15 4 -3 9 0 25 7 34 13 15 14 15 17 0 2 -10 8 -17 13 -17z m-206 -46 c17
-15 40 -33 53 -41 27 -19 28 -27 2 -53 -24 -24 -28 -22 -101 44 -38 35 -47 48
-31 44 17 -5 22 -2 22 13 0 26 20 24 55 -7z m-2 -120 c4 -8 5 -14 0 -14 -10 0
-73 62 -73 73 0 10 61 -39 73 -59z m90 -20 c26 -4 44 -10 42 -14 -3 -5 -14 -6
-25 -3 -15 4 -20 0 -20 -16 0 -25 -20 -29 -21 -3 0 11 -2 12 -6 4 -3 -7 0 -19
6 -26 14 -16 4 -27 -17 -19 -23 9 -32 23 -32 56 0 30 3 30 73 21z m587 -20 c0
-12 7 -15 24 -12 19 4 24 1 23 -14 -1 -15 -6 -18 -27 -13 -34 9 -50 24 -43 41
7 19 23 18 23 -2z m-485 -34 c17 0 20 -16 4 -25 -13 -9 -69 14 -69 27 0 6 7 8
15 4 10 -3 15 1 15 12 1 16 1 16 11 0 5 -10 17 -18 24 -18z m414 11 c11 -7 10
-11 -6 -19 -20 -11 -43 0 -43 20 0 11 31 10 49 -1z m-599 -29 c0 -13 7 -18 22
-18 19 1 24 -6 29 -41 4 -32 2 -43 -8 -43 -8 0 -13 13 -13 35 0 24 -5 35 -15
35 -10 0 -15 -11 -15 -35 0 -19 -4 -35 -10 -35 -6 0 -10 27 -10 60 0 33 4 60
10 60 6 0 10 -8 10 -18z m470 -42 l0 -60 -34 0 c-45 0 -63 22 -49 61 7 18 8
29 2 29 -6 0 -7 5 -3 11 4 7 9 7 13 2 3 -6 16 -12 29 -15 17 -5 22 -2 22 13 0
10 5 19 10 19 6 0 10 -27 10 -60z m181 12 c-14 -5 -14 -39 -1 -47 15 -9 12
-25 -5 -25 -17 0 -20 7 -29 57 -4 22 0 37 11 49 16 15 17 15 25 -7 6 -15 5
-25 -1 -27z m-700 31 c7 -53 3 -103 -8 -103 -7 0 -15 12 -19 28 -3 15 -7 33
-10 40 -5 19 6 42 22 42 8 0 14 -3 15 -7z m927 -10 c12 -12 13 -18 4 -21 -14
-4 -16 -52 -2 -52 6 0 10 -5 10 -11 0 -6 -8 -9 -17 -7 -25 5 -40 108 -16 108
2 0 12 -8 21 -17z m-1234 -19 c30 -30 13 -74 -29 -74 -27 0 -45 18 -45 45 0
42 44 59 74 29z m76 6 c0 -4 -7 -10 -15 -14 -9 -3 -15 -18 -15 -36 0 -16 -4
-30 -10 -30 -5 0 -10 20 -10 44 0 40 2 44 25 44 14 0 25 -4 25 -8z m62 -35 c2
-31 -1 -45 -9 -45 -9 0 -13 16 -13 45 0 25 4 45 9 45 5 0 11 -20 13 -45z m72
39 c22 -9 10 -23 -14 -17 -29 8 -25 -6 6 -17 16 -7 24 -16 22 -28 -4 -20 -45
-29 -61 -13 -15 15 0 26 17 12 10 -8 16 -9 21 -1 3 5 -5 14 -19 20 -29 11 -32
20 -14 38 14 14 20 14 42 6z m284 -6 c22 -22 13 -38 -19 -38 -20 0 -29 -4 -26
-12 4 -12 12 -13 35 -5 4 1 8 -2 10 -8 1 -5 -13 -10 -30 -10 -30 0 -33 3 -36
34 -5 46 36 69 66 39z m130 -6 c3 -9 -3 -11 -22 -6 -23 5 -26 3 -26 -21 0 -24
3 -26 26 -21 19 5 25 3 22 -6 -7 -21 -50 -22 -65 -2 -17 24 -16 39 3 59 19 18
55 17 62 -3z m91 4 c7 -8 11 -27 9 -43 -2 -23 -8 -29 -35 -31 -24 -2 -34 2
-43 18 -23 44 39 93 69 56z m202 -13 c8 -21 5 -23 -26 -23 -19 0 -35 -4 -35
-9 0 -13 28 -22 35 -10 4 5 11 7 16 3 15 -9 0 -24 -25 -24 -28 0 -46 18 -46
45 0 47 65 61 81 18z m173 21 c9 -3 16 -15 16 -25 0 -14 -7 -19 -30 -19 -16 0
-30 -4 -30 -9 0 -13 28 -22 35 -10 4 5 11 7 16 3 15 -9 0 -24 -25 -24 -28 0
-46 18 -46 45 0 36 27 53 64 39z m94 -13 c3 -9 -2 -11 -19 -7 l-24 7 23 -17
c33 -24 29 -54 -7 -54 -17 0 -33 5 -36 11 -11 17 3 23 20 9 9 -7 19 -10 23 -6
4 4 -4 15 -17 25 -16 12 -22 24 -18 35 8 20 48 18 55 -3z m102 -26 c0 -35 -4
-45 -16 -45 -11 0 -14 5 -10 16 3 9 6 29 6 45 0 16 5 29 10 29 6 0 10 -20 10
-45z m78 33 c14 -12 17 -78 3 -78 -6 0 -11 15 -13 33 -2 20 -8 32 -18 32 -10
0 -16 -12 -18 -32 -5 -49 -22 -40 -22 11 0 41 2 44 28 44 15 0 33 -5 40 -10z
m112 -39 c0 -46 -17 -79 -41 -79 -20 0 -49 21 -43 31 4 6 11 6 20 -2 15 -13
44 -6 44 11 0 7 -8 9 -20 5 -26 -8 -50 11 -50 39 0 31 18 45 57 44 33 -1 33
-2 33 -49z m-1045 -96 c4 -27 7 -55 8 -63 1 -8 -5 -16 -14 -18 -13 -2 -18 10
-26 58 -10 62 -8 70 13 70 8 0 15 -19 19 -47z m817 25 c-6 -7 -13 -30 -17 -50
-8 -44 -17 -48 -33 -13 -21 45 -15 63 21 68 17 2 34 5 36 5 2 1 -1 -4 -7 -10z"/>
<path d="M1324 1535 c-4 -10 -14 -13 -29 -9 -14 3 -24 0 -28 -9 -4 -11 5 -15
41 -15 30 -1 42 2 33 7 -7 5 -10 14 -6 20 5 9 10 9 21 0 12 -10 13 -9 8 5 -8
20 -33 21 -40 1z"/>
<path d="M1424 1375 c-4 -9 -2 -21 4 -27 15 -15 44 -1 40 19 -4 23 -36 29 -44
8z"/>
<path d="M614 1375 c-4 -9 -2 -21 4 -27 15 -15 44 -1 40 19 -4 23 -36 29 -44
8z"/>
<path d="M1330 1366 c0 -20 5 -26 21 -26 15 0 20 5 17 22 -5 34 -38 37 -38 4z"/>
<path d="M2074 1375 c-4 -9 -2 -21 4 -27 15 -15 44 -1 40 19 -4 23 -36 29 -44
8z"/>
<path d="M740 2034 l-25 -15 25 5 c14 3 34 6 45 6 17 0 17 2 5 10 -19 12 -20
12 -50 -6z"/>
<path d="M2049 2004 c-6 -16 -15 -37 -21 -47 -5 -11 -7 -21 -5 -23 2 -3 14 16
26 42 12 25 20 49 17 51 -3 3 -10 -7 -17 -23z"/>
<path d="M700 1956 c0 -17 -27 -29 -34 -15 -2 5 -3 4 -2 -3 1 -7 20 -14 42
-16 37 -2 38 -1 20 13 -18 14 -18 15 -2 15 9 0 14 5 11 10 -9 15 -35 12 -35
-4z"/>
<path d="M1794 1959 c-5 -9 4 -10 32 -6 27 5 33 4 19 -3 -11 -5 -15 -9 -10 -9
6 -1 3 -6 -5 -11 -12 -8 -11 -11 8 -16 19 -6 21 -9 10 -23 -11 -14 -11 -14 4
-3 14 11 17 10 21 -5 4 -17 5 -17 6 0 0 10 -6 26 -15 35 -12 12 -13 17 -4 20
7 3 16 -1 20 -8 5 -8 9 -7 14 6 4 10 1 21 -6 26 -19 12 -86 10 -94 -3z"/>
<path d="M1902 1881 c-6 -18 -20 -31 -36 -35 -22 -5 -24 -9 -14 -20 17 -18 53
8 68 48 12 35 12 36 1 36 -5 0 -14 -13 -19 -29z"/>
<path d="M2270 1764 c0 -16 5 -24 13 -21 6 2 11 10 10 16 -2 6 3 11 10 11 8 0
7 4 -3 10 -24 15 -30 12 -30 -16z"/>
<path d="M2497 1738 c-19 -24 -39 -53 -46 -65 -10 -21 -12 -21 -43 -5 -18 9
-39 22 -46 29 -16 15 -26 17 -17 3 3 -5 1 -10 -4 -10 -6 0 -11 -4 -11 -9 0 -9
77 -41 102 -41 8 0 37 25 62 55 51 59 43 57 124 23 15 -6 30 -11 35 -10 4 1 7
-2 7 -8 0 -5 7 -10 16 -10 9 0 28 -6 42 -14 40 -22 169 -80 255 -114 56 -23
25 6 -35 33 -35 15 -139 63 -231 106 -92 44 -169 79 -172 79 -2 0 -19 -19 -38
-42z"/>
<path d="M2036 1584 c-27 -41 -46 -77 -44 -80 3 -2 22 23 42 56 20 33 46 66
56 73 17 12 18 28 1 27 -3 0 -28 -34 -55 -76z"/>
<path d="M2410 1610 c-6 -11 -8 -25 -5 -30 3 -5 2 -26 -4 -45 l-9 -35 305 0
c169 0 304 3 301 6 -4 3 -122 7 -265 10 -142 2 -266 6 -277 7 -26 5 -39 34
-33 73 7 39 2 43 -13 14z"/>
<path d="M0 1476 c0 -7 7 -17 15 -20 18 -6 49 -72 40 -85 -2 -5 20 -19 51 -31
31 -13 58 -29 61 -37 3 -7 9 -13 14 -13 21 0 -6 29 -56 61 -33 20 -55 41 -55
52 0 23 -28 65 -51 78 -14 7 -19 6 -19 -5z"/>
<path d="M2200 1420 c-23 -5 -26 -13 -33 -75 -9 -73 -17 -85 -55 -85 -12 0
-25 -8 -29 -17 -3 -10 -17 -30 -31 -46 -24 -25 -25 -29 -10 -43 16 -16 38 -12
38 7 0 6 -4 8 -9 4 -5 -3 -13 0 -16 5 -8 13 24 52 36 44 5 -3 9 -1 9 3 0 5 12
14 28 21 15 6 41 22 59 35 33 25 93 26 93 2 0 -7 15 -28 33 -46 18 -19 39 -49
46 -67 12 -29 12 -34 -4 -46 -16 -12 -15 -12 13 -8 18 2 32 6 32 9 0 2 -9 21
-20 43 -11 22 -20 46 -20 54 0 8 -13 20 -30 28 -33 14 -35 20 -20 49 9 16 18
18 48 13 43 -7 56 4 66 51 7 34 0 47 -31 64 -17 9 -28 9 -44 1 -11 -7 -28 -8
-37 -5 -24 10 -82 13 -112 5z m111 -57 c4 -32 2 -43 -8 -43 -8 0 -13 13 -13
36 0 45 -24 42 -28 -4 -4 -43 -22 -41 -22 3 0 24 -5 35 -15 35 -10 0 -15 -11
-15 -35 0 -19 -4 -35 -10 -35 -5 0 -10 20 -10 44 l0 43 58 -1 57 -1 6 -42z
m87 35 c21 -21 13 -38 -18 -38 -16 0 -30 -5 -30 -11 0 -6 11 -9 25 -7 13 2 24
-1 25 -7 0 -5 -15 -10 -32 -10 -29 0 -33 4 -36 28 -6 47 36 75 66 45z"/>
<path d="M2587 1283 c-15 -36 -14 -39 7 -63 12 -14 35 -43 51 -65 16 -22 32
-42 35 -45 18 -15 69 -103 65 -111 -4 -5 1 -9 9 -9 9 0 16 4 16 9 0 6 -41 65
-92 131 -89 118 -91 123 -80 153 17 45 7 45 -11 0z"/>
<path d="M254 1278 c-4 -6 17 -32 52 -64 64 -57 89 -72 46 -26 -15 16 -35 39
-44 52 -12 16 -18 19 -18 10 0 -13 -2 -13 -10 0 -5 9 -5 19 2 27 8 10 6 13 -5
13 -9 0 -19 -5 -23 -12z"/>
<path d="M1260 1271 c0 -4 16 -8 35 -9 19 -1 35 2 35 7 0 4 -16 8 -35 9 -19 1
-35 -2 -35 -7z"/>
<path d="M1581 1263 c25 -32 40 -45 45 -41 10 10 -8 36 -33 47 -25 11 -25 11
-12 -6z"/>
<path d="M560 1262 c0 -5 20 -40 45 -78 24 -38 45 -75 45 -83 0 -8 18 -33 40
-57 31 -34 40 -52 40 -79 0 -27 4 -35 18 -35 11 0 24 -11 30 -25 7 -15 17 -22
25 -19 8 3 21 -2 30 -10 22 -22 30 -20 17 4 -6 11 -18 20 -26 20 -8 0 -31 16
-51 35 -27 26 -34 40 -31 60 4 18 -3 33 -23 55 -16 16 -34 30 -39 30 -6 0 -10
13 -10 29 0 16 -7 35 -16 42 -9 7 -31 37 -50 66 -32 51 -44 63 -44 45z"/>
<path d="M1495 1220 c-3 -6 1 -13 9 -16 9 -3 13 -10 10 -15 -3 -5 0 -9 5 -9 6
0 11 -6 11 -12 0 -11 35 -15 69 -9 3 1 -4 7 -14 15 -11 8 -23 12 -27 10 -5 -3
-12 6 -18 20 -10 26 -34 34 -45 16z"/>
<path d="M1641 1193 c-12 -16 -24 -33 -28 -38 -17 -23 -13 -34 10 -26 12 5 21
11 19 15 -1 3 4 22 12 41 18 42 14 44 -13 8z"/>
<path d="M1427 1203 c-13 -12 -7 -24 11 -21 9 1 23 -1 30 -6 22 -13 27 3 6 19
-21 16 -37 19 -47 8z"/>
<path d="M1977 1191 c2 -8 -2 -11 -12 -7 -46 19 -50 19 -37 5 16 -17 15 -24
-4 -43 -8 -9 -11 -16 -5 -16 5 0 14 6 18 14 4 7 19 19 32 26 19 10 25 10 32
-1 7 -11 9 -10 9 4 0 9 -6 17 -14 17 -8 0 -16 3 -19 8 -2 4 -2 1 0 -7z"/>
<path d="M770 1130 c39 -38 70 -75 70 -82 1 -8 6 -6 15 6 14 18 11 41 -3 32
-4 -2 -37 22 -72 55 -89 80 -95 74 -10 -11z"/>
<path d="M1236 1183 c-8 -29 -26 -146 -26 -175 0 -18 5 -28 15 -28 8 0 15 3
16 8 4 49 7 212 4 212 -2 0 -6 -8 -9 -17z"/>
<path d="M2826 1153 c-14 -26 -33 -58 -42 -70 -9 -13 -12 -23 -7 -23 11 0 87
130 79 137 -2 3 -16 -17 -30 -44z"/>
<path d="M2960 1168 c-16 -17 -27 -35 -24 -39 2 -4 0 -9 -4 -11 -8 -3 -58 -77
-217 -324 -27 -42 -59 -92 -70 -110 -11 -18 -36 -58 -55 -89 -19 -31 -39 -65
-45 -76 -5 -10 -13 -19 -17 -19 -5 0 -8 -7 -8 -15 0 -8 -4 -15 -9 -15 -5 0
-12 -11 -15 -25 -4 -14 -11 -25 -16 -25 -6 0 -10 -4 -10 -9 0 -5 -27 -50 -60
-100 -32 -49 -61 -102 -64 -118 -2 -15 -5 -29 -5 -30 -1 -1 -12 2 -26 7 -40
15 -29 1 13 -17 20 -8 52 -21 71 -29 27 -11 32 -17 23 -26 -7 -7 -11 -32 -11
-58 1 -46 3 -43 13 20 4 26 23 54 66 98 61 64 69 68 98 53 9 -5 40 -19 67 -31
28 -13 73 -33 100 -45 135 -60 227 -96 237 -93 6 2 -18 17 -53 32 -61 27 -100
45 -297 137 -46 22 -92 39 -102 39 -11 0 -31 -20 -49 -47 -48 -75 -49 -76 -74
-58 -12 8 -33 15 -47 15 -18 0 -21 3 -11 9 7 5 9 10 4 12 -6 2 51 97 126 211
137 209 475 740 499 784 18 33 6 30 -28 -8z"/>
<path d="M2527 1155 c-10 -21 -16 -40 -13 -42 7 -7 38 56 34 68 -2 6 -11 -6
-21 -26z"/>
<path d="M1346 1172 c-8 -13 0 -67 10 -67 5 0 10 17 12 38 3 34 -9 49 -22 29z"/>
<path d="M1827 1128 c-3 -25 -14 -49 -26 -59 -11 -9 -27 -41 -36 -72 -16 -56
-31 -79 -91 -144 l-32 -33 29 0 c20 0 27 4 23 14 -3 8 8 29 24 47 15 19 36 45
45 59 l17 24 2 -24 c0 -14 4 -5 7 20 3 25 2 48 -2 51 -5 3 -1 9 9 13 10 4 15
4 12 0 -4 -3 0 -13 9 -22 37 -38 -13 -160 -86 -209 -44 -30 -75 -29 -99 2 -11
14 -29 25 -39 25 -21 0 -163 139 -163 160 0 6 -5 8 -12 4 -7 -4 -8 -3 -4 4 4
6 -2 19 -13 29 -19 15 -19 17 -3 29 21 16 62 18 62 4 0 -6 8 -10 18 -8 12 2
18 -5 20 -25 3 -21 -2 -29 -20 -36 -16 -7 -18 -10 -6 -10 9 -1 24 6 32 15 14
14 15 12 10 -15 -4 -21 -3 -31 5 -31 9 0 11 18 7 63 -2 34 -5 63 -5 63 -5 9
-64 25 -78 21 -12 -3 -9 -5 9 -6 15 0 30 -6 34 -13 5 -8 2 -9 -10 -5 -10 4
-28 7 -41 7 -18 0 -24 7 -31 38 -6 28 -9 32 -11 15 -3 -12 1 -32 8 -44 9 -19
9 -21 -4 -16 -9 3 -18 -1 -21 -9 -3 -8 -12 -14 -19 -14 -8 0 -26 -9 -41 -21
-14 -11 -30 -17 -36 -14 -13 8 -13 -11 0 -35 10 -18 7 -19 -37 -16 -27 2 -53
-1 -60 -6 -14 -11 -58 16 -95 60 -13 15 -34 28 -46 30 -23 3 -62 -22 -62 -41
0 -5 -15 -33 -32 -63 -24 -39 -39 -54 -55 -54 -16 0 -23 -6 -23 -20 0 -25 1
-25 36 5 16 14 32 25 35 25 4 0 19 27 35 60 36 75 56 78 110 16 l38 -44 -3
-84 c-2 -64 0 -80 9 -71 7 6 15 38 17 70 7 84 57 131 93 88 9 -11 16 -13 24
-5 15 15 49 12 110 -10 83 -32 83 -33 40 -152 -39 -108 -46 -118 -81 -118 -15
0 -20 -5 -17 -17 3 -12 -7 -25 -29 -38 -39 -24 -71 -85 -61 -117 4 -12 21 -35
37 -51 23 -21 27 -31 18 -37 -18 -11 -80 30 -81 53 0 10 4 15 10 12 6 -3 7 1
4 9 -3 9 -11 13 -17 9 -6 -4 -7 -1 -2 6 4 7 0 27 -10 44 -17 32 -16 32 21 89
39 60 53 65 55 20 l1 -27 8 25 8 25 1 -25 c1 -20 3 -22 11 -10 16 25 11 35
-24 48 -48 18 -68 44 -60 78 l7 27 24 -27 c25 -30 52 -29 52 1 0 10 3 32 7 49
4 24 0 37 -21 62 -15 18 -34 32 -43 32 -12 0 -13 -3 -5 -8 18 -11 5 -80 -18
-95 -24 -17 -33 -60 -19 -87 7 -13 8 -25 3 -29 -5 -3 -8 -13 -8 -21 0 -8 -2
-17 -5 -20 -3 -3 -13 -20 -23 -39 -17 -33 -17 -35 2 -74 16 -31 18 -43 8 -49
-7 -4 -17 -1 -25 10 -7 9 -18 16 -23 14 -14 -3 -52 18 -45 25 3 4 -3 11 -13
17 -75 44 -101 63 -105 78 -2 11 -13 18 -28 17 -73 -2 -60 -14 194 -174 139
-87 355 -223 480 -302 125 -79 233 -143 240 -143 13 1 -41 54 -78 77 -10 7
-63 41 -117 77 -82 53 -95 65 -78 71 12 3 25 4 30 0 5 -3 30 0 56 7 36 10 42
14 28 20 -11 5 -2 7 25 4 23 -2 42 0 42 5 0 10 -21 13 -57 10 -23 -2 -123 47
-123 61 0 4 -7 5 -16 1 -24 -9 43 -66 77 -65 16 0 26 -5 26 -14 0 -9 -6 -13
-15 -9 -8 3 -20 1 -26 -4 -8 -7 -23 -5 -47 7 -27 13 -33 22 -32 42 l3 25 -10
-24 c-8 -19 -7 -28 6 -42 14 -16 14 -19 3 -19 -19 0 -239 139 -239 150 0 5 17
17 38 27 20 9 55 30 77 46 35 25 41 26 51 13 20 -28 24 -17 7 19 -13 28 -19
32 -26 20 -9 -17 -112 -95 -124 -95 -17 1 -44 52 -41 78 6 48 113 99 183 86
28 -5 35 -11 35 -30 0 -13 4 -24 8 -24 5 0 7 15 5 33 -3 26 -2 29 7 15 6 -10
17 -18 24 -18 25 0 47 -36 40 -64 -7 -31 -12 -32 -30 -8 -7 9 -14 12 -14 5 0
-6 5 -15 10 -18 16 -10 12 -23 -11 -30 l-21 -7 21 -15 c12 -8 21 -20 21 -28 0
-17 51 -60 100 -85 33 -17 39 -17 44 -5 3 8 1 15 -4 15 -19 0 -10 18 13 24 14
4 26 0 33 -10 9 -12 13 -12 17 -2 3 10 9 10 23 2 11 -6 28 -10 39 -8 10 2 25
-2 32 -7 9 -8 19 -3 38 17 14 15 25 33 25 40 0 8 5 14 10 14 6 0 10 5 10 10 0
15 -16 12 -34 -6 -9 -8 -13 -20 -10 -26 9 -14 -15 -28 -49 -28 -34 0 -106 68
-108 102 -1 18 -2 19 -6 5 -6 -23 -25 -17 -29 8 -4 26 7 40 17 24 7 -11 10 -9
15 8 4 13 10 20 15 18 4 -3 2 10 -6 30 -9 20 -11 35 -5 35 18 0 11 57 -11 81
l-21 24 6 -23 c2 -13 2 -30 -1 -38 -9 -25 -23 -3 -23 38 0 34 3 39 18 33 20
-9 34 -12 85 -20 28 -5 37 -11 37 -26 0 -11 -4 -17 -10 -14 -6 4 -10 -6 -10
-22 0 -15 -5 -35 -11 -43 -8 -11 -9 1 -5 45 3 39 2 54 -4 45 -7 -10 -10 -11
-10 -2 0 6 -4 12 -9 12 -15 0 -7 -94 9 -107 8 -7 41 -12 75 -11 33 0 51 3 40
5 -17 3 -20 10 -17 53 3 41 7 50 23 50 16 0 17 -4 9 -26 -6 -14 -10 -35 -10
-47 1 -22 1 -22 15 -3 18 24 18 28 0 -68 -8 -44 -13 -81 -10 -84 21 -21 46 92
38 170 -4 44 -10 58 -27 66 -39 18 -130 41 -186 47 -32 4 -88 22 -133 43 -68
32 -81 35 -107 25 -25 -9 -30 -9 -30 3 0 21 24 94 31 94 3 0 23 -15 45 -32
119 -99 153 -104 231 -37 40 34 86 114 85 148 0 15 -10 47 -23 70 -21 41 -21
60 0 46 6 -3 11 -14 11 -24 0 -14 15 -22 57 -34 32 -9 60 -13 64 -9 4 4 13 32
21 62 l13 55 59 -4 c33 -1 80 -9 105 -17 25 -8 58 -14 74 -14 15 0 27 -3 27
-6 0 -9 -90 -143 -101 -149 -5 -4 -22 3 -38 14 -16 12 -45 22 -64 23 -19 2
-33 6 -31 9 5 8 -21 19 -43 19 -32 0 39 -42 95 -57 31 -8 62 -18 67 -22 17
-13 46 -21 40 -11 -3 5 17 41 44 81 62 89 58 100 -40 129 -69 21 -234 36 -207
19 9 -7 10 -11 2 -16 -6 -5 -15 -24 -19 -43 -13 -62 -30 -69 -93 -37 -15 7
-22 17 -19 29 3 10 1 20 -3 23 -5 3 -3 19 3 35 9 25 8 33 -4 46 -15 14 -17 12
-22 -28z m-437 -121 c0 -15 -68 -42 -78 -32 -10 10 37 45 59 45 10 0 19 -6 19
-13z m-5 -54 c-18 -12 -55 -18 -55 -8 0 2 12 11 27 19 33 17 54 9 28 -11z
m162 -233 c9 -18 13 -20 13 -8 0 17 2 17 35 0 31 -15 35 -21 35 -59 0 -24 -4
-43 -10 -43 -5 0 -10 12 -10 28 0 15 -5 34 -11 42 -7 11 -8 5 -3 -22 4 -25 2
-38 -5 -38 -6 0 -11 13 -11 29 0 38 -20 52 -21 14 0 -22 -3 -17 -13 20 -13 48
-34 83 -23 38 3 -13 -1 -37 -9 -53 -14 -26 -13 -28 6 -28 34 0 89 -35 80 -50
-5 -8 -7 -17 -4 -21 2 -4 0 -10 -6 -14 -5 -3 -10 -1 -10 5 0 6 -4 9 -9 5 -5
-3 -16 2 -24 10 -9 8 -22 15 -30 15 -19 0 -26 29 -22 93 3 38 2 45 -4 27 -9
-24 -9 -23 -10 8 -1 31 1 33 26 30 17 -2 32 -12 40 -28z m-87 -60 l0 -70 -34
0 c-19 0 -53 -9 -77 -19 -48 -22 -65 -19 -31 4 11 9 27 21 34 29 7 7 24 18 36
25 15 8 21 18 18 27 -3 8 -2 12 3 9 5 -3 15 11 22 30 20 53 29 42 29 -35z
m199 -7 c2 30 21 18 21 -13 0 -28 -2 -30 -20 -20 -13 7 -20 20 -19 38 l1 27 8
-25 c5 -17 8 -19 9 -7z m201 -63 c0 -27 -4 -50 -10 -50 -11 0 -14 83 -3 93 12
12 13 8 13 -43z m-180 -22 c11 -18 20 -41 20 -50 0 -26 -36 -59 -57 -52 -17 5
-17 5 0 -9 17 -14 17 -16 -5 -31 -26 -18 -17 -21 14 -5 23 13 38 -1 38 -36 0
-18 5 -20 34 -17 18 2 36 -1 40 -6 4 -6 -17 -12 -54 -14 -44 -2 -61 1 -65 11
-3 7 -12 10 -21 7 -8 -3 -12 -2 -9 4 3 6 -5 10 -19 10 -33 0 -32 10 0 61 20
33 24 49 19 77 -5 29 -4 34 9 29 9 -4 16 -2 16 2 0 5 -7 11 -15 15 -25 9 -18
36 10 36 18 0 31 -10 45 -32z"/>
<path d="M711 1110 c26 -34 33 -33 23 4 -4 17 -13 26 -25 26 -19 0 -19 -1 2
-30z"/>
<path d="M176 1105 c-4 -13 -15 -15 -48 -10 l-43 6 45 -26 c25 -14 53 -36 63
-48 12 -16 16 -17 11 -4 -13 37 33 9 57 -34 5 -11 14 -17 19 -14 6 4 6 11 0
18 -6 7 -20 25 -31 40 -16 21 -28 27 -43 23 -12 -3 -28 -1 -36 4 -12 7 -11 12
5 29 10 12 16 24 13 26 -3 3 -8 -1 -12 -10z"/>
<path d="M1417 1044 c-3 -4 -2 -15 4 -25 8 -16 12 -17 23 -7 10 9 11 17 4 26
-12 13 -21 15 -31 6z"/>
<path d="M804 1025 c-11 -8 -14 -15 -6 -15 6 0 12 -7 12 -15 0 -28 15 -15 17
15 3 35 3 35 -23 15z"/>
<path d="M2350 974 c-13 -33 -31 -59 -44 -64 -21 -9 -21 -9 2 -9 19 -1 28 9
45 49 20 45 47 75 43 47 -2 -14 -22 -67 -43 -116 -21 -46 -22 -95 -3 -97 8 0
10 1 3 3 -18 6 -18 7 32 122 26 57 45 104 43 106 -2 1 -15 5 -29 8 -23 6 -27
2 -49 -49z"/>
<path d="M13 995 c-6 -6 -2 -16 14 -28 12 -10 23 -24 23 -31 0 -7 17 -20 38
-29 37 -17 37 -17 15 2 -12 10 -19 21 -16 25 4 3 0 6 -9 6 -8 0 -25 12 -39 26
-24 26 -24 26 -2 20 13 -4 30 -3 39 2 14 8 10 10 -18 14 -19 2 -39 -1 -45 -7z"/>
<path d="M2711 958 c-7 -20 -17 -38 -23 -40 -6 -2 -9 -10 -7 -17 3 -7 15 6 28
28 12 23 21 47 18 54 -2 6 -9 -5 -16 -25z"/>
<path d="M0 914 c0 -21 3 -24 13 -16 10 9 17 6 30 -8 28 -33 22 -53 -13 -45
-20 4 -30 3 -30 -5 0 -6 5 -8 10 -5 6 3 10 -1 10 -9 0 -9 -4 -16 -10 -16 -5 0
-10 -8 -9 -17 0 -11 3 -13 6 -5 2 6 11 12 19 12 8 0 14 6 14 14 0 8 7 17 16
20 25 9 64 7 64 -4 0 -5 -7 -10 -15 -10 -8 0 -15 -3 -15 -7 0 -11 123 -3 137
9 7 5 38 6 75 2 l63 -6 -33 32 c-18 18 -35 30 -39 26 -3 -3 -1 -6 6 -6 7 0 9
-5 6 -10 -5 -8 -11 -8 -20 0 -7 6 -28 7 -51 3 -22 -4 -51 -7 -66 -7 -14 -1
-24 -5 -21 -9 3 -5 21 -6 39 -2 20 3 34 2 34 -4 0 -30 -70 -16 -111 22 -34 31
-96 77 -104 77 -3 0 -5 -12 -5 -26z"/>
<path d="M1615 907 c-27 -16 -42 -26 -32 -23 9 3 25 9 35 12 12 4 10 0 -7 -15
-17 -16 -19 -21 -7 -21 8 0 22 13 31 29 8 16 20 31 27 34 7 2 11 6 8 9 -3 2
-27 -9 -55 -25z"/>
<path d="M220 910 c-8 -5 -26 -10 -40 -10 l-25 -1 24 -10 c28 -11 57 -4 65 16
6 17 -2 19 -24 5z"/>
<path d="M270 905 c-17 -20 9 -21 36 0 19 14 19 14 -2 15 -12 0 -27 -7 -34
-15z"/>
<path d="M1326 885 c17 -7 44 -16 60 -20 25 -4 24 -3 -6 8 -19 8 -46 17 -60
20 -19 5 -17 3 6 -8z"/>
<path d="M340 881 c0 -5 13 -11 29 -13 21 -3 28 -1 24 9 -6 14 -53 18 -53 4z"/>
<path d="M440 885 c0 -9 88 -64 94 -58 10 11 7 23 -7 23 -7 0 -23 9 -35 20
-19 18 -52 28 -52 15z"/>
<path d="M2649 858 c-41 -83 -62 -123 -69 -128 -4 -3 -24 -35 -45 -72 -36 -66
-55 -84 -55 -53 0 8 -14 29 -30 47 l-31 33 26 -39 c14 -21 25 -48 25 -58 0
-30 -53 -98 -115 -147 -36 -29 -55 -51 -55 -65 0 -17 7 -14 36 22 33 38 86 80
70 54 -3 -6 -2 -13 3 -16 5 -3 37 42 71 101 34 60 79 137 101 173 56 93 91
160 87 171 -2 6 -11 -5 -19 -23z"/>
<path d="M618 830 c-20 -4 -46 -5 -58 -3 -16 2 -21 -1 -16 -12 3 -10 -1 -15
-11 -15 -9 0 -14 -3 -10 -6 3 -3 30 1 60 10 30 9 69 16 86 16 26 0 32 -5 39
-32 4 -18 11 -28 14 -22 11 17 -16 57 -42 64 -14 3 -41 3 -62 0z"/>
<path d="M412 823 c-29 -4 -36 -11 -53 -50 -24 -57 -17 -66 20 -26 16 18 27
34 25 36 -7 7 57 18 67 11 5 -3 9 4 9 15 0 22 -2 22 -68 14z"/>
<path d="M862 793 c-3 -30 -35 -92 -47 -91 -60 4 -85 -4 -132 -46 -26 -24 -45
-47 -41 -51 4 -4 19 5 33 19 55 55 70 60 174 57 100 -3 111 -8 111 -48 0 -13
5 -23 10 -23 6 0 10 15 10 33 0 26 -7 36 -35 55 -19 12 -42 37 -50 55 l-15 32
4 -30 c3 -16 7 -39 11 -50 5 -15 3 -14 -8 4 -9 15 -17 20 -21 12 -4 -6 -12
-11 -18 -11 -6 0 -3 9 6 19 12 13 16 30 13 53 -2 18 -5 23 -5 11z"/>
<path d="M619 751 c-41 -41 -78 -71 -88 -71 -17 0 -13 19 9 37 24 21 26 33 5
33 -19 0 -47 -54 -39 -74 3 -9 1 -16 -5 -16 -6 0 -11 6 -12 13 0 6 -4 2 -9
-10 -10 -23 -30 -32 -30 -12 0 5 -4 8 -9 4 -17 -10 -21 12 -6 25 30 25 14 29
-30 8 -25 -12 -45 -26 -45 -30 0 -11 7 -10 31 2 15 8 21 7 25 -4 11 -29 91
-25 114 5 3 4 12 9 20 11 8 2 21 11 28 21 7 9 17 15 22 12 4 -3 11 2 14 10 3
9 25 24 48 34 l42 18 -34 0 c-20 1 -42 -6 -51 -16z"/>
<path d="M1131 720 c-1 -27 14 -58 24 -49 3 3 -1 21 -9 40 -14 31 -15 32 -15
9z"/>
<path d="M210 723 c-30 -2 -60 -9 -67 -14 -7 -6 -18 -7 -24 -3 -8 4 -9 3 -5
-4 8 -14 -25 -17 -40 -3 -14 13 -74 22 -74 11 0 -6 8 -10 18 -10 10 0 40 -7
67 -16 44 -16 50 -16 75 0 16 9 43 16 62 16 46 0 108 11 108 19 0 8 -41 9
-120 4z"/>
<path d="M2367 608 c-21 -17 -49 -53 -63 -79 -18 -37 -30 -49 -47 -49 -23 0
-97 45 -97 59 0 4 -7 8 -16 8 -12 0 -7 -8 15 -26 l31 -26 -59 -65 c-57 -63
-59 -64 -78 -47 -26 23 -36 22 -23 -3 13 -24 10 -28 -63 -83 -57 -43 -77 -63
-77 -74 0 -4 -6 -20 -14 -35 -13 -24 -12 -31 6 -64 14 -26 16 -40 9 -47 -6 -6
-11 -20 -11 -32 1 -15 6 -10 21 19 26 49 55 80 63 68 3 -5 3 -32 0 -61 -5 -57
1 -65 17 -23 27 69 2 163 -35 133 -8 -7 -16 -22 -18 -34 -2 -12 -11 -23 -21
-25 -15 -3 -17 2 -14 30 5 48 20 71 82 123 l55 47 26 -32 c23 -26 32 -31 56
-26 16 3 27 2 23 -3 -6 -11 134 -85 143 -76 3 3 0 11 -6 17 -7 7 -12 26 -12
43 0 26 -6 34 -36 48 -32 16 -39 36 -11 37 7 1 28 15 47 31 l35 31 -34 -17
c-18 -9 -53 -35 -77 -57 -43 -40 -45 -40 -64 -23 -17 15 -22 16 -37 4 -15 -12
-16 -12 -10 5 4 10 3 24 -3 31 -8 9 -3 17 17 31 35 22 91 83 99 107 7 22 16
22 32 -3 13 -22 42 -26 72 -10 10 5 26 33 35 60 10 30 27 57 41 67 20 13 52
54 42 53 -2 -1 -20 -15 -41 -32z m-139 -334 c12 -8 22 -24 22 -35 0 -23 -1
-23 -45 -2 -35 17 -45 37 -22 46 19 8 21 8 45 -9z"/>
<path d="M814 586 c-18 -8 -35 -19 -38 -25 -11 -17 20 -13 34 4 7 8 19 15 26
15 8 0 14 5 14 10 0 12 2 12 -36 -4z"/>
<path d="M70 579 c0 -9 34 -18 60 -17 31 1 429 -108 444 -122 4 -4 -2 -14 -15
-20 -31 -16 -129 -121 -129 -139 0 -11 3 -11 17 0 56 46 153 145 153 156 0 7
18 18 40 24 27 8 39 17 36 26 -3 7 2 13 12 14 9 1 22 2 27 4 6 1 28 3 50 3 39
2 39 2 17 18 -20 14 -24 14 -38 0 -8 -9 -20 -16 -25 -16 -18 0 -8 21 24 50 37
34 22 40 -42 14 -29 -11 -38 -20 -34 -33 7 -27 -77 -92 -101 -79 -10 5 -27 11
-39 13 -12 1 -65 15 -117 30 -255 73 -340 91 -340 74z"/>
<path d="M2036 469 c-9 -23 -15 -44 -12 -47 5 -5 15 17 30 66 12 38 -1 24 -18
-19z"/>
<path d="M119 453 c71 -50 113 -75 117 -70 4 4 -152 107 -163 107 -4 0 16 -17
46 -37z"/>
<path d="M313 463 c-7 -2 -13 -9 -13 -15 0 -7 4 -7 13 0 7 6 33 12 57 15 l45
4 -45 0 c-25 1 -51 -1 -57 -4z"/>
<path d="M845 461 c-39 -16 -123 -100 -119 -119 5 -18 -62 -66 -156 -112 -25
-12 -53 -29 -63 -38 -13 -11 -20 -13 -29 -4 -12 12 -3 24 100 141 34 38 48 61
39 61 -9 0 -41 -29 -73 -65 -31 -35 -61 -62 -66 -59 -13 8 -49 -27 -41 -40 4
-6 -1 -5 -11 3 -9 8 -15 20 -12 27 3 8 -15 25 -45 43 -53 33 -62 33 -25 -2 22
-21 60 -71 112 -150 14 -22 29 -35 36 -31 6 4 8 3 5 -3 -4 -6 12 -34 34 -62
29 -37 48 -51 66 -51 23 0 20 5 -41 85 l-65 84 27 19 c15 11 54 33 87 49 33
16 78 42 100 57 28 19 47 25 64 21 18 -5 41 5 93 40 73 49 103 89 77 106 -17
11 -67 11 -94 0z m38 -51 c-3 -10 -16 -26 -29 -35 -28 -18 -31 -10 -7 17 16
18 16 18 -3 12 -15 -6 -13 -3 6 13 29 24 40 22 33 -7z m-414 -191 c-8 -15 -7
-25 3 -37 12 -16 11 -16 -6 -2 -11 8 -21 14 -23 13 -1 -2 -3 -1 -3 2 0 3 0 10
0 16 0 5 6 7 13 3 9 -6 9 -4 -1 8 -10 13 -10 17 0 21 21 7 29 -3 17 -24z"/>
<path d="M1800 450 c-47 -4 -51 -6 -27 -13 15 -4 39 -4 54 -1 26 7 27 6 10
-10 -9 -10 -22 -14 -29 -10 -7 4 -10 4 -6 -1 4 -4 17 -13 30 -19 12 -6 23 -17
26 -25 3 -9 0 -11 -8 -6 -9 5 -11 4 -6 -3 12 -20 26 -13 26 12 0 14 5 28 10
31 6 3 10 12 10 18 0 22 -34 32 -90 27z"/>
<path d="M690 434 c0 -12 -6 -15 -21 -11 -16 4 -18 3 -8 -9 11 -14 60 -20 72
-8 5 5 -28 44 -38 44 -3 0 -5 -7 -5 -16z"/>
<path d="M1030 353 c-19 -15 -72 -55 -119 -88 -82 -58 -86 -63 -89 -101 -3
-36 1 -44 32 -67 19 -15 39 -27 45 -27 6 0 11 -6 11 -14 0 -8 13 -24 29 -35
43 -31 51 -25 11 9 -19 16 -30 30 -24 30 6 0 25 -14 42 -30 18 -17 39 -30 47
-30 8 0 -10 25 -42 56 -32 31 -50 53 -40 50 12 -4 17 0 17 14 0 11 5 20 11 20
13 0 70 -39 85 -59 6 -8 18 -12 28 -8 9 4 15 3 14 -1 -26 -53 -32 -61 -40 -50
-5 10 -8 8 -8 -4 0 -25 28 -22 49 4 l18 22 29 -23 c19 -15 30 -19 33 -10 4 13
-36 48 -56 49 -7 0 -16 12 -19 26 -5 19 -9 22 -15 12 -6 -9 -9 -5 -9 15 0 15
5 27 10 27 6 0 10 -4 10 -9 0 -5 9 -11 21 -14 12 -3 18 -10 14 -16 -3 -6 0 -9
7 -6 8 3 14 14 14 25 0 13 -4 16 -12 10 -13 -11 -24 -3 -24 18 0 9 7 13 20 9
14 -4 20 0 20 11 1 10 7 4 14 -13 7 -16 12 -33 10 -37 -2 -3 5 -4 15 -1 12 3
17 11 14 20 -4 11 -8 12 -13 3 -5 -9 -10 -5 -15 10 -5 15 -2 25 6 31 9 6 15 3
17 -6 2 -8 8 -15 13 -15 5 0 8 3 6 8 -1 4 3 7 8 7 6 0 9 -10 7 -22 -2 -18 1
-21 15 -16 10 4 12 8 5 11 -7 2 -10 8 -6 13 9 14 24 10 24 -7 0 -21 19 -7 31
23 9 25 10 25 37 7 15 -10 55 -36 90 -57 41 -26 62 -45 60 -56 -2 -9 -8 -15
-13 -13 -10 4 -23 -23 -24 -48 0 -12 2 -11 10 3 12 21 29 22 29 2 0 -10 10
-15 28 -15 l27 0 -24 13 c-29 14 -34 26 -21 47 12 19 46 0 44 -24 -2 -13 1
-14 12 -5 11 9 18 8 32 -5 10 -8 34 -19 53 -22 39 -7 59 -21 -330 226 -123 78
-229 144 -236 146 -7 3 -27 -8 -45 -23z m67 -14 c38 -24 39 -44 2 -44 -13 0
-30 -4 -37 -8 -7 -5 -20 -6 -29 -3 -13 5 -13 9 -2 23 8 9 13 24 11 35 -4 24
13 23 55 -3z m100 -65 c17 -13 35 -24 40 -24 4 0 21 -11 38 -24 25 -20 28 -26
16 -40 -12 -14 -17 -13 -53 16 -38 30 -41 31 -54 14 -7 -10 -17 -15 -23 -12
-6 4 -16 -2 -23 -13 -12 -19 -12 -19 -39 0 -19 13 -30 16 -34 8 -5 -8 -10 -8
-18 0 -8 8 -1 20 27 44 22 17 46 40 54 49 17 18 20 17 69 -18z m-180 -18 c13
-12 23 -24 23 -27 0 -15 -33 -18 -46 -4 -8 8 -22 19 -31 24 -10 5 -14 15 -10
25 7 19 32 12 64 -18z m-49 -25 c27 -23 30 -30 19 -39 -10 -9 -19 -7 -35 8
-12 11 -26 20 -32 20 -5 0 -10 9 -10 20 0 27 19 24 58 -9z m-44 -44 c37 -31
37 -33 19 -49 -17 -16 -20 -15 -61 19 -34 28 -40 38 -31 49 17 21 32 17 73
-19z m146 -32 c0 -5 -6 -17 -13 -26 -11 -15 -15 -15 -40 7 -30 26 -33 34 -15
52 8 8 18 7 40 -6 15 -9 28 -21 28 -27z"/>
<path d="M2270 253 c0 -10 5 -25 10 -33 7 -12 11 -10 18 10 6 17 6 27 -2 32
-18 12 -26 9 -26 -9z"/>
<path d="M2088 218 c7 -7 12 -27 12 -45 0 -26 -3 -31 -17 -27 -15 5 -16 4 -3
-5 13 -9 12 -13 -7 -26 -13 -9 -23 -22 -23 -28 0 -7 16 5 35 25 19 21 33 43
31 50 -3 7 -7 25 -10 41 -4 15 -12 27 -18 27 -9 0 -9 -3 0 -12z"/>
<path d="M1306 124 c-4 -19 -10 -43 -13 -52 -4 -13 -2 -12 10 3 8 11 13 23 11
27 -3 4 0 16 6 27 6 11 6 22 1 25 -5 3 -12 -10 -15 -30z"/>
<path d="M1209 96 c-12 -25 -13 -25 -31 -10 -10 10 -18 12 -18 6 0 -6 9 -16
21 -23 15 -8 18 -14 10 -22 -19 -19 -12 -28 7 -9 10 9 17 23 14 30 -2 7 1 19
8 27 7 9 10 18 7 22 -4 3 -12 -6 -18 -21z"/>
<path d="M1244 83 c3 -4 2 -11 -3 -17 -4 -6 -11 -24 -15 -40 -6 -26 -5 -28 8
-17 13 11 19 11 34 0 9 -7 14 -10 10 -5 -4 5 -3 18 3 30 9 19 9 19 -4 4 -10
-13 -16 -15 -25 -6 -17 17 -15 28 10 37 l22 8 -23 6 c-13 3 -20 3 -17 0z"/>
<path d="M2021 65 c-1 -11 -8 -31 -17 -43 -18 -26 -8 -30 13 -4 22 28 36 55
25 48 -6 -3 -13 0 -15 6 -3 7 -6 4 -6 -7z"/>
</g>
</svg>
